<svg xmlns="http://www.w3.org/2000/svg" width="150" height="50" viewBox="0 0 406 126" class="css-1j8o68f">
    <g id="container" transform="scale(0.8)" transform-origin="50% 50%">
        <g id="SvgjsG5128" featurekey="symbolFeature-0" transform="matrix(1.1158697780124733,0,0,1.1158697780124733,-7.5082435447816795,9.574890638184538)" fill="#111111">
            <g xmlns="http://www.w3.org/2000/svg">
                <g>
                    <path d="M26.873,20.334c-4.741-0.014-9.381-1.263-13.263,2.11c-1.87,1.624-2.299,4.311-2.578,6.603      c-0.631,5.161,3.508,11.083-3.364,13.324C6.874,42.63,6.32,43.844,7.116,44.46c1.217,0.941,2.534,1.58,3.881,2.321      c1.541,0.85,1.672,7.571,1.83,8.996c0.518,4.645-2.014,10.145-0.706,14.59c1.439,4.895,10.028,7.739,14.291,4.704      c1.302-0.927,0.055-3.096-1.262-2.158c-3.014,2.146-10.304-0.182-10.696-4.099c-0.361-3.601,1.004-7.689,0.977-11.355      c-0.021-2.898-0.081-7.211-0.959-9.933c-0.908-2.812-3.42-3.157-5.588-4.834c-0.184,0.696-0.367,1.393-0.552,2.089      c3.796-1.237,5.835-2.769,5.909-6.976c0.086-4.918-3.096-12.596,3.484-14.983c2.703-0.981,6.338,0.004,9.147,0.012      C28.485,22.839,28.485,20.339,26.873,20.334L26.873,20.334z">
                    </path>
                    <path d="M69.127,22.834c2.42-0.007,4.821-0.306,7.241-0.291c7.298,0.046,6.105,8.637,5.521,13.517      c-0.596,4.986,1.211,7.233,5.778,8.722c-0.185-0.696-0.368-1.393-0.552-2.089c-1.566,1.212-4.622,1.843-5.313,3.983      c-0.911,2.822-0.803,6.146-1.131,9.102c-0.444,3.987,0.4,7.833,0.836,11.765c0.506,4.552-7.022,7.96-10.659,5.371      c-1.316-0.938-2.563,1.231-1.262,2.158c4.263,3.035,12.852,0.19,14.291-4.704c0.403-1.37,0.155-3.07-0.058-4.448      c-0.528-3.418-0.861-6.683-0.648-10.142c0.141-2.297,0.593-4.489,0.687-6.79c0.101-2.493,3.391-3.264,5.024-4.527      c0.797-0.616,0.242-1.83-0.552-2.089c-5.858-1.91-3.765-6.868-3.369-11.584c0.202-2.408-0.23-5.367-1.771-7.325      c-3.622-4.6-8.899-3.143-14.064-3.128C67.515,20.339,67.515,22.839,69.127,22.834L69.127,22.834z">
                    </path>
                </g>
                <g>
                    <path d="M35.27,51.389c-5.728-2.952-9.439,7.214-3.4,8.823c4.333,1.155,7.525-7.248,3.4-9.136      c-1.455-0.666-2.726,1.488-1.262,2.158c1.634,0.748,0.089,4.142-1.229,4.547c-1.23,0.378-1.668-1.66-1.501-2.457      c0.259-1.241,1.433-2.445,2.729-1.777C35.438,54.284,36.703,52.127,35.27,51.389L35.27,51.389z">
                    </path>
                    <path d="M46.629,50.639c-2.154,0.781-3.212,2.804-2.837,5.044c0.332,1.985,1.799,3.742,3.916,3.764      c2.555,0.026,4.729-2.692,4.443-5.131c-0.309-2.632-2.759-4.478-5.347-4.346c-1.604,0.081-1.612,2.582,0,2.5      c1.323-0.067,2.462,0.608,2.838,1.917c0.354,1.228-0.944,2.57-2.141,2.558c-0.77-0.008-1.136-1.135-1.263-1.711      c-0.195-0.884,0.177-1.866,1.054-2.185C48.796,52.504,48.147,50.087,46.629,50.639L46.629,50.639z">
                    </path>
                    <path d="M59.451,51.213c-1.226,1.781-1.3,4.066-0.054,5.859c1.094,1.571,3.086,2.631,5.005,2.063      c2.415-0.715,3.265-3.849,2.676-6.033c-0.812-3.01-4.29-4.313-6.866-2.65c-1.35,0.87-0.098,3.035,1.262,2.158      c3.29-2.123,4.363,3.976,1.991,4.185c-0.834,0.073-1.651-0.564-2.107-1.284c-0.644-1.016-0.393-2.099,0.252-3.036      C62.526,51.143,60.358,49.895,59.451,51.213L59.451,51.213z">
                    </path>
                </g>
            </g>
        </g>
        <g id="SvgjsG5129" featurekey="textGroupContainer" transform="matrix(1,0,0,1,405,0)" fill="#111111">
            <rect xmlns="http://www.w3.org/2000/svg" y="0" height="1" width="1" opacity="0"></rect>
            <rect xmlns="http://www.w3.org/2000/svg" y="0" x="-293" width="3" height="126"></rect>
        </g>
        <g id="SvgjsG5130" featurekey="nameFeature-0" transform="matrix(2.1870326578892185,0,0,2.1870326578892185,125.6253652835147,6.346862953612305)" fill="#111111">
            <path d="M14.323 21.361 c-1.0208 -0.050624 -2.0336 -0.26058 -2.9692 -0.60572 c-0.1134 -1.0665 -0.22723 -2.0573 -0.3216 -3.0501 c-0.063204 -0.66512 -0.31148 -1.18 -0.9924 -1.4036 c-0.70196 -0.23047 -1.3958 -0.18188 -1.8896 0.36777 c-0.39656 0.44108 -0.76032 0.99116 -0.91384 1.5542 c-0.2791 1.0244 -0.43384 2.0892 -0.56424 3.1464 c-0.3293 2.6726 -0.4022 5.3584 -0.27258 8.0476 c0.054256 1.1305 0.10082 2.2663 0.25594 3.3846 c0.091524 0.6594 0.28879 1.3476 0.61484 1.9224 c0.7226 1.2735 1.8426 1.2192 2.4955 -0.081444 c0.58812 -1.1706 0.87572 -2.4299 0.96116 -3.7354 c0.068048 -1.0394 0.13285 -1.1609 1.1799 -1.2658 c0.79956 -0.080196 1.6129 -0.042108 2.4194 -0.021055 c0.46864 0.012148 0.70356 0.34024 0.70272 0.77528 c-0.0020312 0.93608 -0.0020312 1.8762 -0.089924 2.8062 c-0.060352 0.6388 -0.2418 1.2707 -0.41236 1.8936 c-0.79512 2.9071 -3.0059 4.2004 -5.7112 4.7432 c-1.8264 0.36656 -3.266 -0.55416 -4.364 -1.9722 c-0.35199 -0.45444 -0.66512 -0.9786 -0.84132 -1.5214 c-0.5286 -1.6295 -0.99644 -3.2716 -1.0722 -5.012 c-0.077384 -1.7774 -0.29367 -3.5479 -0.42652 -5.3232 c-0.23289 -3.1116 -0.10328 -6.2116 0.41964 -9.2872 c0.72828 -4.282 5.4368 -5.76 8.2864 -4.4292 c0.40908 0.19117 0.8668 0.28719 1.2581 0.50552 c0.4156 0.23211 0.86196 0.49132 1.1508 0.85388 c1.4728 1.8487 2.2436 3.9906 2.4457 6.3336 c0.075352 0.87168 -0.42328 1.4206 -1.3492 1.3744 z  M33.181 19.54 c0.01418 1.2622 0.0035547 2.5242 0.0035547 3.1565 c-0.24262 4.1248 -0.38558 7.6204 -0.67156 11.104 c-0.2475 3.014 -2.2396 4.8772 -4.9752 5.6588 c-0.50712 0.14461 -1.1224 0.17418 -1.623 0.031211 c-2.0318 -0.58044 -3.8464 -1.5291 -5.0464 -3.3781 c-0.59544 -0.91744 -0.91868 -1.9155 -1.0029 -3.0043 c-0.38156 -4.9308 -0.16606 -9.8372 0.58128 -14.722 c0.058752 -0.38316 0.15312 -0.76068 0.22078 -1.143 c0.42004 -2.3825 1.8786 -3.8318 4.1144 -4.5824 c0.24547 -0.082228 0.50392 -0.13328 0.73844 -0.2382 c1.0308 -0.46176 2.097 -0.33012 3.1343 -0.11746 c2.4457 0.50068 4.1648 2.423 4.4328 4.9104 c0.083048 0.7696 0.085076 1.5497 0.093592 2.325 z M27.832 31.942 c0.12394 -2.391 0.20168 -4.784 0.29726 -7.176 l-0.047344 -0.0036328 c0 -1.0361 0.0048436 -2.0719 -0.00125 -3.108 c-0.0068752 -1.1321 0.023086 -2.2679 -0.060744 -3.3948 c-0.033633 -0.45084 -0.29812 -0.89756 -0.5144 -1.3172 c-0.19238 -0.37348 -0.54112 -0.38117 -0.92756 -0.28316 c-0.77324 0.19644 -1.1248 0.785 -1.2536 1.4642 c-0.30742 1.6178 -0.7218 3.2469 -0.75544 4.8784 c-0.066444 3.2331 0.077344 6.4712 0.17859 9.706 c0.019024 0.60272 0.22074 1.2055 0.3852 1.7952 c0.12312 0.44108 0.45488 0.70724 0.92192 0.74488 c0.49252 0.039688 0.89756 -0.14867 1.1394 -0.58652 c0.13894 -0.25152 0.25156 -0.5302 0.31109 -0.81008 c0.13406 -0.63148 0.29324 -1.2686 0.32688 -1.9094 z M46.972 34.0848 c-0.034414 -0.15109 -0.086288 -0.29836 -0.14059 -0.48428 c-1.6178 -0.067656 -3.1918 -0.12965 -4.8304 0.29039 c-0.11219 0.58932 -0.22316 1.184 -0.33859 1.7782 c-0.20942 1.0791 -0.39371 2.1642 -0.64 3.2352 c-0.28476 1.237 -0.69264 1.536 -1.9641 1.5659 c-1.8175 0.042928 -1.9758 -0.053088 -1.8061 -1.8997 c0.16242 -1.768 0.47428 -3.524 0.76148 -5.2784 c0.61608 -3.7666 1.2354 -7.5332 1.9022 -11.291 c0.25965 -1.4623 0.63956 -2.9034 0.98628 -4.3492 c0.32406 -1.3509 0.69592 -2.6908 1.0082 -4.0444 c0.1693 -0.73476 0.48524 -1.218 1.3196 -1.2646 c1.0296 -0.057108 2.0544 -0.24141 3.0833 -0.26004 c1.0803 -0.019453 1.3934 0.35359 1.5923 1.4144 c0.42896 2.2865 0.947 4.5576 1.3306 6.8516 c0.5598 3.3494 1.0208 6.7152 1.5481 10.07 c0.4018 2.5559 0.84372 5.1056 1.2617 7.6592 c0.072928 0.44676 0.14059 0.8972 0.16609 1.348 c0.033203 0.58208 -0.13652 0.7688 -0.69756 0.81616 c-0.41884 0.035625 -0.83968 0.049804 -1.2601 0.063984 c-1.2002 0.0409 -1.9612 -0.51364 -2.2428 -1.6834 c-0.36293 -1.5088 -0.69304 -3.0254 -1.0398 -4.5384 z M46.294000000000004 29.427 c-0.36578 -3.2988 -0.72388 -6.4692 -1.406 -9.616 c-0.63592 3.4312 -1.6712 6.766 -2.2209 10.305 c1.2905 -0.24504 2.4453 -0.46456 3.6269 -0.689 z M67.003 27.615000000000002 c-0.047384 -0.00039062 -0.093984 -0.00058592 -0.14055 -0.00097656 c-0.13488 1.0438 -0.25234 2.0905 -0.40872 3.1311 c-0.37914 2.5267 -0.7364 5.0576 -1.1812 7.5728 c-0.27746 1.5688 -0.61284 1.7697 -2.2444 1.7065 c-0.51684 -0.019844 -1.0321 -0.12879 -1.5477 -0.12719 c-0.54564 0.0016016 -0.73196 -0.29976 -0.82104 -0.75872 c-0.16039 -0.82552 -0.34106 -1.6474 -0.49496 -2.4741 c-0.657 -3.53 -1.3525 -7.054 -1.9463 -10.595 c-0.5776 -3.4434 -1.0503 -6.9048 -1.5647 -10.359 c-0.15191 -1.0208 -0.28965 -2.0439 -0.45328 -3.2024 c0.30621 -0.055508 0.63104 -0.16246 0.95632 -0.16367 c1.0358 -0.0032422 2.0719 0.044572 3.1076 0.047812 c0.42812 0.0012109 0.68332 0.18793 0.75944 0.58932 c0.13774 0.72744 0.37106 1.463 0.35082 2.1897 c-0.082228 2.952 0.62864 5.7732 1.2929 8.606 c0.0064844 0.027148 0.041328 0.047812 0.1418 0.15797 c0.060352 -0.2159 0.11867 -0.36738 0.14379 -0.52376 c0.4828 -3.0355 0.93892 -6.0752 1.4574 -9.104 c0.1284 -0.74932 0.45648 -1.4646 0.7206 -2.2808 c0.99644 0 1.8993 0.012969 2.8014 -0.0044532 c0.58976 -0.011758 0.6558 0.41884 0.75948 0.82756 c0.42168 1.6611 0.84052 3.3231 1.2585 4.9856 c0.49496 1.9677 0.98832 3.9359 1.5368 6.122 c0.12031 -0.69344 0.20942 -1.1916 0.29246 -1.691 c0.3941 -2.3619 0.79876 -4.722 1.1722 -7.0876 c0.10047 -0.63676 0.10168 -1.2893 0.15434 -1.9341 c0.078984 -0.97052 0.27785 -1.1552 1.2447 -1.19 c0.71208 -0.025938 1.4234 -0.071288 2.1354 -0.08668 c0.76796 -0.016602 1.1406 0.29164 1.2261 1.0479 c0.04336 0.38277 0.033633 0.78056 -0.015781 1.1633 c-0.28598 2.214 -0.54684 4.4328 -0.90044 6.6364 c-0.5282 3.2903 -1.1156 6.5712 -1.6984 9.852 c-0.4014 2.2618 -0.8344 4.518 -1.2613 6.7748 c-0.072108 0.38074 -0.16891 0.75868 -0.28312 1.1289 c-0.32406 1.0511 -0.5274 1.2062 -1.6583 1.2772 c-0.64444 0.040508 -1.2909 0.051056 -1.935 0.09926 c-0.47188 0.035234 -0.64604 -0.29973 -0.74124 -0.63068 c-0.24102 -0.83728 -0.47028 -1.683 -0.62176 -2.5397 c-0.50752 -2.867 -0.97864 -5.7408 -1.4659 -8.6116 c-0.031602 -0.18551 -0.085076 -0.36777 -0.12801 -0.55124 z M85.6648 31.334 c-0.0073048 1.5817 0.07582 3.1639 0.11957 4.7884 c0.8652 0 1.6048 -0.0064844 2.344 0.0016016 c0.93768 0.010117 1.8786 -0.010938 2.8119 0.061172 c1.0106 0.078164 1.2962 0.43868 1.2974 1.4282 c0.0020312 1.4144 -0.37711 1.8576 -1.811 1.954 c-2.2642 0.1523 -4.5308 0.19726 -6.79 -0.10125 c-0.28758 -0.038086 -0.57476 -0.096836 -0.85388 -0.17582 c-0.81376 -0.23047 -1.0864 -0.52172 -1.0612 -1.3849 c0.040116 -1.3906 0.19484 -2.7774 0.23942 -4.168 c0.07168 -2.2318 0.10691 -4.4652 0.13121 -6.6984 c0.017812 -1.6502 -0.016602 -3.3008 -0.0089064 -4.9512 c0.011758 -2.4943 0.034024 -4.9892 0.064804 -7.4836 c0.0068752 -0.54924 0.061952 -1.0985 0.1057 -1.647 c0.031172 -0.38926 0.2268 -0.689 0.59944 -0.80928 c0.80244 -0.25883 1.621 -0.2734 2.336 0.20254 c0.28598 0.19039 0.48688 0.58208 0.6084 0.92432 c0.11504 0.32402 0.10207 0.70316 0.09922 1.0576 c-0.026328 3.3684 -0.052656 6.7368 -0.098828 10.105 c-0.031602 2.2991 -0.12191 4.5976 -0.13324 6.8964 z M96.24629999999999 25.93 c0.063592 -0.00082032 0.12676 -0.0016406 0.19035 -0.0024609 c-0.060744 -2.0054 -0.15551 -4.0108 -0.17254 -6.0168 c-0.016602 -1.9414 0.030391 -3.8841 0.082656 -5.8256 c0.025117 -0.93408 0.13527 -1.0321 1.0511 -1.201 c0.47716 -0.087892 0.9608 -0.14664 1.4444 -0.18957 c1.0333 -0.091524 1.3156 0.091952 1.3877 1.1143 c0.097616 1.3861 0.1057 2.7787 0.13973 4.1692 c0.072108 2.9435 0.13207 5.8872 0.20418 8.8304 c0.08426 3.4296 0.20215 6.8588 0.25398 10.289 c0.023906 1.5785 -1.0888 2.5182 -2.6531 2.2185 c-1.907 -0.36535 -1.9082 -0.31715 -1.9212 -2.2233 c-0.025508 -3.7208 -0.0072656 -7.442 -0.0072656 -11.163 z M114.32699999999998 26.901 c0.070468 -0.015391 0.1418 -0.031484 0.21308 -0.047264 c0.048204 -1.7438 0.053048 -3.4899 0.1543 -5.2304 c0.15191 -2.6171 0.36293 -5.2304 0.56872 -7.8444 c0.032812 -0.41476 0.13652 -0.83276 0.2698 -1.2285 c0.2641 -0.7842 0.5918 -0.94864 1.3987 -0.73516 c0.62416 0.16527 1.2451 0.34551 1.8604 0.54196 c0.91096 0.29082 1.1564 0.58732 1.1257 1.5509 c-0.047384 1.4878 -0.0875 2.9812 -0.2491 4.4596 c-0.48568 4.448 -0.719 8.906 -0.74372 13.379 c-0.010938 1.9422 -0.11262 3.8844 -0.19078 5.8264 c-0.019453 0.48404 -0.082228 0.96968 -0.17094 1.446 c-0.13812 0.74084 -0.42124 0.96928 -1.1799 1.0296 c-0.064412 0.0052736 -0.12961 0.0044532 -0.19402 0.0073048 c-1.9167 0.090312 -2.3299 -0.25641 -2.9476 -2.0706 c-1.5218 -4.47 -3.0962 -8.9228 -4.654 -13.38 c-0.027539 -0.078164 -0.11586 -0.13527 -0.30301 -0.34387 c0 0.54924 0.0024219 0.9478 -0.00042968 1.3464 c-0.025117 3.7856 -0.04172 7.5708 -0.085468 11.356 c-0.0076952 0.67728 -0.095588 1.3586 -0.20332 2.0285 c-0.16039 0.9936 -0.50672 1.2727 -1.5024 1.2403 c-0.48324 -0.015781 -0.97052 -0.070076 -1.4444 -0.16484 c-0.93324 -0.18633 -1.1508 -0.40908 -1.1649 -1.3695 c-0.027148 -1.8742 -0.092772 -3.7548 0.022656 -5.6228 c0.35484 -5.728 0.50428 -11.452 0.08832 -17.183 c-0.063204 -0.87004 -0.050664 -1.7498 -0.012578 -2.6223 c0.043752 -1.0074 0.4468 -1.3732 1.4651 -1.4177 c0.32242 -0.01418 0.64928 0.04172 0.97052 0.017812 c1.0045 -0.075352 1.7037 0.42488 2.1274 1.2496 c0.47108 0.91664 0.89032 1.873 1.2087 2.852 c0.77 2.3684 1.4456 4.7672 2.2043 7.1392 c0.40872 1.2788 0.90976 2.5279 1.3691 3.7905 z">
            </path>
        </g>
    </g>
</svg>