<svg xmlns="http://www.w3.org/2000/svg" width="22.585" height="25.768" viewBox="0 0 22.585 25.768">
  <g id="Date-Icon-9yn3rsd" transform="translate(-210.031 -808.586)">
    <path id="Path_172" data-name="Path 172" d="M20.374,10.762H18.53V8.7a1.111,1.111,0,1,0-2.221,0v2.065H6.276V8.7a1.111,1.111,0,1,0-2.221,0v2.065H2.211A2.215,2.215,0,0,0,0,12.973v18.17a2.215,2.215,0,0,0,2.211,2.211H20.374a2.215,2.215,0,0,0,2.211-2.211V12.973a2.215,2.215,0,0,0-2.211-2.211m-4.065.078H18.53v2.086a1.111,1.111,0,0,1-2.221,0Zm-12.254,0H6.276v2.086a1.111,1.111,0,0,1-2.221,0Zm17.463,20.3a1.145,1.145,0,0,1-1.144,1.144H2.211a1.145,1.145,0,0,1-1.144-1.144V14.952H21.518Z" transform="translate(210.031 801)" fill="#040504"/>
    <rect id="Rectangle_20" data-name="Rectangle 20" width="3.66" height="3.659" transform="translate(212.774 818.24)" fill="#040504"/>
    <rect id="Rectangle_21" data-name="Rectangle 21" width="3.66" height="3.659" transform="translate(217.272 818.24)" fill="#040504"/>
    <rect id="Rectangle_22" data-name="Rectangle 22" width="3.66" height="3.659" transform="translate(212.774 822.737)" fill="#040504"/>
    <rect id="Rectangle_23" data-name="Rectangle 23" width="3.66" height="3.659" transform="translate(217.272 822.737)" fill="#040504"/>
    <rect id="Rectangle_24" data-name="Rectangle 24" width="3.66" height="3.659" transform="translate(212.774 827.236)" fill="#040504"/>
    <rect id="Rectangle_25" data-name="Rectangle 25" width="3.66" height="3.659" transform="translate(217.272 827.236)" fill="#040504"/>
    <rect id="Rectangle_26" data-name="Rectangle 26" width="3.66" height="3.659" transform="translate(226.213 818.24)" fill="#040504"/>
    <rect id="Rectangle_27" data-name="Rectangle 27" width="3.66" height="3.659" transform="translate(221.715 818.24)" fill="#040504"/>
    <rect id="Rectangle_28" data-name="Rectangle 28" width="3.66" height="3.659" transform="translate(226.213 822.737)" fill="#040504"/>
    <rect id="Rectangle_29" data-name="Rectangle 29" width="3.66" height="3.659" transform="translate(221.715 822.737)" fill="#040504"/>
    <rect id="Rectangle_30" data-name="Rectangle 30" width="3.66" height="3.659" transform="translate(226.213 827.236)" fill="#040504"/>
    <rect id="Rectangle_31" data-name="Rectangle 31" width="3.66" height="3.659" transform="translate(221.715 827.236)" fill="#040504"/>
  </g>
</svg>
